<?xml version="1.0" encoding="UTF-8" standalone="no"?>
<svg
   aria-hidden="true"
   focusable="false"
   data-prefix="fas"
   data-icon="clock"
   class="svg-inline--fa fa-clock fa-w-16"
   role="img"
   viewBox="0 0 40 40"
   version="1.1"
   id="svg4"
   sodipodi:docname="clock-solid.svg"
   inkscape:export-filename="/home/mzwallow/.config/awesome/themes/zz/icons/clock-solid.png"
   inkscape:export-xdpi="96"
   inkscape:export-ydpi="96"
   width="40"
   height="40"
   inkscape:version="1.1.1 (3bf5ae0d25, 2021-09-20, custom)"
   xmlns:inkscape="http://www.inkscape.org/namespaces/inkscape"
   xmlns:sodipodi="http://sodipodi.sourceforge.net/DTD/sodipodi-0.dtd"
   xmlns="http://www.w3.org/2000/svg"
   xmlns:svg="http://www.w3.org/2000/svg">
  <defs
     id="defs8" />
  <sodipodi:namedview
     id="namedview6"
     pagecolor="#505050"
     bordercolor="#eeeeee"
     borderopacity="1"
     inkscape:pageshadow="0"
     inkscape:pageopacity="0"
     inkscape:pagecheckerboard="0"
     showgrid="false"
     inkscape:zoom="9.5569901"
     inkscape:cx="44.671937"
     inkscape:cy="21.88649"
     inkscape:window-width="1920"
     inkscape:window-height="1027"
     inkscape:window-x="0"
     inkscape:window-y="53"
     inkscape:window-maximized="1"
     inkscape:current-layer="svg4" />
  <path
     fill="currentColor"
     d="m 20,10 c -5.524193,0 -10,4.475806 -10,10 0,5.524194 4.475807,10 10,10 5.524194,0 10,-4.475806 10,-10 0,-5.524194 -4.475806,-10 -10,-10 z m 3.729435,12.620968 v 0 l -0.806451,1.008064 a 0.64516129,0.64516129 0 0 1 -0.906855,0.100807 v 0 L 19.314516,21.725 a 1.6129032,1.6129032 0 0 1 -0.604838,-1.259274 v -6.272178 a 0.64516129,0.64516129 0 0 1 0.645161,-0.645161 h 1.290322 a 0.64516129,0.64516129 0 0 1 0.645162,0.645161 V 20 l 2.338709,1.71371 a 0.64516129,0.64516129 0 0 1 0.100403,0.907258 z"
     id="path2"
     style="fill-opacity:1;stroke-width:0.0403226" />
</svg>
