<?xml version="1.0" encoding="UTF-8" standalone="no"?>
<svg
   aria-hidden="true"
   focusable="false"
   data-prefix="fas"
   data-icon="memory"
   class="svg-inline--fa fa-memory fa-w-20"
   role="img"
   viewBox="0 0 40 40"
   version="1.1"
   id="svg51"
   sodipodi:docname="memory-solid.svg"
   width="40"
   height="40"
   inkscape:version="1.1.1 (3bf5ae0d25, 2021-09-20, custom)"
   xmlns:inkscape="http://www.inkscape.org/namespaces/inkscape"
   xmlns:sodipodi="http://sodipodi.sourceforge.net/DTD/sodipodi-0.dtd"
   xmlns="http://www.w3.org/2000/svg"
   xmlns:svg="http://www.w3.org/2000/svg">
  <defs
     id="defs55" />
  <sodipodi:namedview
     id="namedview53"
     pagecolor="#767575"
     bordercolor="#000000"
     borderopacity="1"
     inkscape:pageshadow="2"
     inkscape:pageopacity="0"
     inkscape:pagecheckerboard="true"
     showgrid="false"
     width="40px"
     borderlayer="false"
     inkscape:zoom="17.942835"
     inkscape:cx="15.855911"
     inkscape:cy="18.33601"
     inkscape:window-width="1920"
     inkscape:window-height="1027"
     inkscape:window-x="0"
     inkscape:window-y="53"
     inkscape:window-maximized="1"
     inkscape:current-layer="svg51" />
  <path
     fill="currentColor"
     d="M 30,16.091875 V 15 c 0,-0.552188 -0.447813,-1 -1,-1 H 11.000001 C 10.447813,14 10,14.447812 10,15 v 1.091875 c 0.58125,0.206562 1.000001,0.755937 1.000001,1.408125 0,0.652187 -0.418751,1.201562 -1.000001,1.408125 V 22 H 30 V 18.908125 C 29.41875,18.701562 29,18.152187 29,17.5 c 0,-0.652188 0.41875,-1.201563 1,-1.408125 z M 16.999999,20 h -1.999998 v -4 h 1.999998 z m 4,0 H 19 v -4 h 1.999999 z M 25,20 h -2 v -4 h 2 z m -15,6 h 2.000001 v -0.833438 c 0,-0.27625 0.223748,-0.5 0.499999,-0.5 0.276249,0 0.499999,0.22375 0.499999,0.5 V 26 h 4 v -0.833438 c 0,-0.27625 0.22375,-0.5 0.500002,-0.5 0.276249,0 0.499999,0.22375 0.499999,0.5 V 26 h 4 v -0.833438 c 0,-0.27625 0.22375,-0.5 0.5,-0.5 0.27625,0 0.5,0.22375 0.5,0.5 V 26 h 4 v -0.833438 c 0,-0.27625 0.22375,-0.5 0.5,-0.5 0.27625,0 0.5,0.22375 0.5,0.5 V 26 h 2 V 23 H 10 Z"
     id="path49"
     style="stroke-width:0.0312499" />
  <path
     style="fill:#ba4928;stroke:none;stroke-width:0.0557326"
     d="m 10.003993,20.454979 v -1.503646 l 0.208997,-0.107714 c 1.06168,-0.547174 1.057704,-2.142208 -0.0067,-2.690617 l -0.2157035,-0.111135 0.0244,-0.650304 c 0.02765,-0.736932 0.09141,-0.914957 0.416539,-1.162948 l 0.204712,-0.156145 9.31168,-0.01329 9.311679,-0.01329 0.221795,0.12589 c 0.124114,0.07045 0.277116,0.22357 0.347412,0.347685 0.111053,0.19608 0.125724,0.300165 0.126534,0.897757 l 9.17e-4,0.675962 -0.165072,0.06838 c -0.232459,0.09629 -0.641096,0.550998 -0.72982,0.812106 -0.09568,0.281575 -0.09568,0.771136 0,1.052711 0.08872,0.261109 0.497361,0.715818 0.72982,0.812106 l 0.165072,0.06837 v 1.525884 1.525884 H 19.98012 10.003993 Z m 7.022302,-2.453364 V 15.995243 H 15.995243 14.96419 v 2.006372 2.006371 h 1.031053 1.031052 z m 4.012744,0 v -2.006372 h -1.031053 -1.031052 v 2.006372 2.006371 h 1.031052 1.031053 z m 4.012744,0 V 15.995243 H 24.02073 22.989678 v 2.006372 2.006371 h 1.031052 1.031053 z"
     id="path684" />
  <path
     style="fill:#ba4928;stroke:none;stroke-width:0.0557326"
     d="m 10.003993,24.494457 v -1.476913 h 9.976127 9.976127 v 1.476913 1.476913 h -0.97532 -0.975319 v -0.524505 c 0,-0.517271 -0.0024,-0.526495 -0.171474,-0.668791 -0.227429,-0.191369 -0.448412,-0.186411 -0.673964,0.01512 -0.171467,0.153206 -0.179355,0.179221 -0.202761,0.668791 l -0.02435,0.509385 h -1.943822 -1.943822 v -0.409678 c 0,-0.508917 -0.07702,-0.740032 -0.281938,-0.845998 -0.243742,-0.126044 -0.431833,-0.101232 -0.61407,0.08101 -0.156129,0.156129 -0.162911,0.18397 -0.162911,0.668791 v 0.50588 H 20.01337 18.040245 l -0.01931,-0.528001 c -0.02359,-0.644851 -0.114788,-0.781714 -0.520906,-0.781714 -0.406119,0 -0.497319,0.136863 -0.520906,0.781714 l -0.01931,0.528001 h -1.973126 -1.973126 v -0.50588 c 0,-0.484821 -0.0068,-0.512662 -0.16291,-0.668791 -0.182238,-0.182237 -0.370328,-0.207049 -0.614071,-0.08101 -0.204916,0.105966 -0.281937,0.337081 -0.281937,0.845998 v 0.409678 h -0.97532 -0.97532 z"
     id="path760" />
</svg>
