<?xml version="1.0" encoding="UTF-8" standalone="no"?>
<svg
   height="48px"
   viewBox="0 0 24 24"
   width="48px"
   fill="#000000"
   version="1.1"
   id="svg866"
   sodipodi:docname="volume_up_black_48dp.svg"
   inkscape:version="1.1.1 (3bf5ae0d25, 2021-09-20, custom)"
   xmlns:inkscape="http://www.inkscape.org/namespaces/inkscape"
   xmlns:sodipodi="http://sodipodi.sourceforge.net/DTD/sodipodi-0.dtd"
   xmlns="http://www.w3.org/2000/svg"
   xmlns:svg="http://www.w3.org/2000/svg">
  <defs
     id="defs870" />
  <sodipodi:namedview
     id="namedview868"
     pagecolor="#505050"
     bordercolor="#ffffff"
     borderopacity="1"
     inkscape:pageshadow="0"
     inkscape:pageopacity="0"
     inkscape:pagecheckerboard="1"
     showgrid="false"
     inkscape:zoom="13.041667"
     inkscape:cx="23.961661"
     inkscape:cy="23.923323"
     inkscape:window-width="1920"
     inkscape:window-height="1001"
     inkscape:window-x="0"
     inkscape:window-y="53"
     inkscape:window-maximized="1"
     inkscape:current-layer="svg866" />
  <path
     d="M3 10v4c0 .55.45 1 1 1h3l3.29 3.29c.63.63 1.71.18 1.71-.71V6.41c0-.89-1.08-1.34-1.71-.71L7 9H4c-.55 0-1 .45-1 1zm13.5 2c0-1.77-1.02-3.29-2.5-4.03v8.05c1.48-.73 2.5-2.25 2.5-4.02zM14 4.45v.2c0 .38.25.71.6.85C17.18 6.53 19 9.06 19 12s-1.82 5.47-4.4 6.5c-.36.14-.6.47-.6.85v.2c0 .63.63 1.07 1.21.85C18.6 19.11 21 15.84 21 12s-2.4-7.11-5.79-8.4c-.58-.23-1.21.22-1.21.85z"
     id="path864" />
  <path
     style="fill:#ba4928;stroke:none;stroke-width:0.0766773;fill-opacity:1"
     d="m 21.546326,37.082102 c -0.126518,-0.0328 -0.333546,-0.114927 -0.460064,-0.182497 -0.126518,-0.06757 -1.76535,-1.660564 -3.64185,-3.539985 l -3.411817,-3.417128 -3.22077,-7.67e-4 C 7.5991042,29.940996 7.5900961,29.940547 7.2076677,29.762082 6.7030664,29.526603 6.288387,29.057634 6.1385127,28.552953 5.9580024,27.945108 5.9605069,20.04879 6.1414055,19.432447 c 0.15184,-0.517336 0.7458525,-1.136584 1.228513,-1.280702 0.2282531,-0.06815 1.1938767,-0.09342 3.4888175,-0.0913 l 3.173213,0.0029 3.41214,-3.443717 c 2.294981,-2.316218 3.51256,-3.490825 3.71885,-3.587601 0.412536,-0.193531 1.276148,-0.192676 1.648563,0.0016 0.37198,0.194081 0.749444,0.564341 0.946016,0.927965 l 0.165805,0.30671 V 24 35.731629 l -0.165502,0.30671 c -0.414229,0.767654 -1.429067,1.246629 -2.211495,1.043763 z"
     id="path989"
     transform="scale(0.5)" />
  <path
     style="fill:#ba4928;stroke:none;stroke-width:0.0766773;fill-opacity:1"
     d="M 28.025559,23.963651 V 15.9912 l 0.402556,0.23624 c 1.652489,0.969763 3.060514,2.534066 3.784354,4.204382 0.478616,1.104444 0.658638,1.954359 0.698938,3.299807 0.04238,1.414839 -0.109009,2.321023 -0.595649,3.565496 -0.672237,1.719093 -2.088587,3.380398 -3.721311,4.364905 -0.24963,0.150523 -0.479751,0.273767 -0.51138,0.273875 -0.03163,1.08e-4 -0.05751,-3.587406 -0.05751,-7.972254 z"
     id="path1065"
     transform="scale(0.5)" />
  <path
     style="fill:#ba4928;stroke:none;stroke-width:0.0766773;fill-opacity:1"
     d="m 29.444089,40.837299 c -0.534302,-0.133906 -0.969655,-0.488366 -1.228173,-0.999968 -0.178039,-0.352335 -0.235678,-1.139615 -0.114992,-1.570661 0.171383,-0.612122 0.528215,-0.928426 1.64532,-1.458447 1.817605,-0.862379 2.989442,-1.69097 4.303478,-3.042934 0.85969,-0.884504 1.312286,-1.453484 1.864817,-2.344346 1.407972,-2.27012 2.092155,-4.696938 2.092155,-7.420943 0,-2.724005 -0.684183,-5.150823 -2.092155,-7.420943 -0.552531,-0.890862 -1.005127,-1.459842 -1.864817,-2.344346 -1.306338,-1.344044 -2.496958,-2.1882 -4.260585,-3.020775 -1.453704,-0.686267 -1.723399,-1.019228 -1.723399,-2.127674 0,-0.5201966 0.03322,-0.7136681 0.164581,-0.9584665 0.291113,-0.5425077 0.794479,-0.9079986 1.379328,-1.0015197 0.393345,-0.062898 1.016518,0.1485933 2.298402,0.7800285 3.589803,1.7682793 6.450673,4.6286127 8.197467,8.1959317 3.024471,6.176604 2.294208,13.462158 -1.888797,18.843806 -1.870824,2.406909 -4.409574,4.376537 -7.124067,5.527037 -0.858803,0.363992 -1.279025,0.456832 -1.648563,0.36422 z"
     id="path1141"
     transform="scale(0.5)" />
</svg>
