<?xml version="1.0" encoding="UTF-8" standalone="no"?>
<svg
   height="48px"
   viewBox="0 0 24 24"
   width="48px"
   fill="#000000"
   version="1.1"
   id="svg879"
   sodipodi:docname="volume_off_black_48dp.svg"
   inkscape:version="1.1.1 (3bf5ae0d25, 2021-09-20, custom)"
   xmlns:inkscape="http://www.inkscape.org/namespaces/inkscape"
   xmlns:sodipodi="http://sodipodi.sourceforge.net/DTD/sodipodi-0.dtd"
   xmlns="http://www.w3.org/2000/svg"
   xmlns:svg="http://www.w3.org/2000/svg">
  <defs
     id="defs883" />
  <sodipodi:namedview
     id="namedview881"
     pagecolor="#505050"
     bordercolor="#ffffff"
     borderopacity="1"
     inkscape:pageshadow="0"
     inkscape:pageopacity="0"
     inkscape:pagecheckerboard="1"
     showgrid="false"
     inkscape:zoom="12.75"
     inkscape:cx="-0.35294118"
     inkscape:cy="23.921569"
     inkscape:window-width="1920"
     inkscape:window-height="1001"
     inkscape:window-x="0"
     inkscape:window-y="53"
     inkscape:window-maximized="1"
     inkscape:current-layer="svg879" />
  <path
     d="M3.63 3.63c-.39.39-.39 1.02 0 1.41L7.29 8.7 7 9H4c-.55 0-1 .45-1 1v4c0 .55.45 1 1 1h3l3.29 3.29c.63.63 1.71.18 1.71-.71v-4.17l4.18 4.18c-.49.37-1.02.68-1.6.91-.36.15-.58.53-.58.92 0 .72.73 1.18 1.39.91.8-.33 1.55-.77 2.22-1.31l1.34 1.34c.39.39 1.02.39 1.41 0 .39-.39.39-1.02 0-1.41L5.05 3.63c-.39-.39-1.02-.39-1.42 0zM19 12c0 .82-.15 1.61-.41 2.34l1.53 1.53c.56-1.17.88-2.48.88-3.87 0-3.83-2.4-7.11-5.78-8.4-.59-.23-1.22.23-1.22.86v.19c0 .38.25.71.61.85C17.18 6.54 19 9.06 19 12zm-8.71-6.29l-.17.17L12 7.76V6.41c0-.89-1.08-1.33-1.71-.7zM16.5 12c0-1.77-1.02-3.29-2.5-4.03v1.79l2.48 2.48c.01-.08.02-.16.02-.24z"
     id="path877" />
  <path
     style="fill:#ba4928;stroke:none;stroke-width:0.0784314;fill-opacity:1"
     d="m 38.901961,41.223698 c -0.507254,-0.129783 -0.836322,-0.391806 -2.237908,-1.781947 l -1.453594,-1.441726 -0.671636,0.494984 c -0.918662,0.677039 -2.035905,1.333015 -3.120032,1.831893 -0.784434,0.360969 -0.974578,0.418196 -1.389509,0.418196 -0.557782,0 -0.929732,-0.135464 -1.325101,-0.482603 -0.44548,-0.391137 -0.621048,-0.797727 -0.62135,-1.438966 -4.71e-4,-1.008389 0.345279,-1.405067 1.877953,-2.154533 0.992644,-0.485394 2.006281,-1.092222 2.312188,-1.384221 0.101342,-0.09674 -0.417362,-0.644378 -4.078432,-4.305977 L 24,26.783653 l -0.03922,4.45131 c -0.03672,4.168364 -0.04867,4.470359 -0.188029,4.750955 -0.44552,0.897077 -1.474012,1.3381 -2.409557,1.033232 -0.394276,-0.128484 -0.648899,-0.36346 -3.873002,-3.574164 l -3.45098,-3.436639 -3.215687,-0.02378 -3.2156859,-0.02378 -0.456691,-0.224248 C 6.6649409,29.497791 6.3226098,29.113078 6.1412938,28.601651 6.0622045,28.378569 6.0392157,27.342238 6.0392157,24 c 0,-3.342238 0.022989,-4.378569 0.1020781,-4.601651 0.181316,-0.511427 0.5236471,-0.89614 1.0098583,-1.134885 l 0.456691,-0.224248 3.2156859,-0.02393 3.215687,-0.02393 0.295066,-0.287035 0.295066,-0.287034 -3.792267,-3.806686 C 8.3249542,11.088929 6.9950169,9.6980185 6.8972973,9.4901961 6.6887951,9.0467701 6.6980344,8.2572923 6.9165849,7.8421093 7.3939449,6.9352631 8.365336,6.520258 9.3034687,6.8223667 9.7090584,6.9529795 10.330733,7.5631632 25.27002,22.493788 c 11.539681,11.532991 15.599993,15.637421 15.759804,15.931047 0.521512,0.95819 0.06299,2.255456 -0.945688,2.675552 -0.328731,0.13691 -0.897247,0.196211 -1.182175,0.123311 z"
     id="path1002"
     transform="scale(0.5)" />
  <path
     style="fill:#ba4928;stroke:none;stroke-width:0.0784314;fill-opacity:1"
     d="m 22.091091,13.581419 -1.830478,-1.831845 0.379497,-0.324805 c 0.402266,-0.344291 0.913803,-0.562024 1.320411,-0.562024 0.496095,0 1.060742,0.232822 1.408821,0.580901 0.526047,0.526046 0.599107,0.849997 0.573656,2.54361 l -0.02143,1.426008 z"
     id="path1078"
     transform="scale(0.5)" />
  <path
     style="fill:#ba4928;stroke:none;stroke-width:0.0784314;fill-opacity:1"
     d="m 30.448783,21.938986 -2.409567,-2.410508 v -1.744631 c 0,-0.959547 0.01828,-1.744631 0.04063,-1.744631 0.02235,0 0.278015,0.144214 0.568149,0.320477 1.956559,1.188651 3.44163,3.178085 4.01456,5.377994 0.20189,0.775207 0.379636,2.427962 0.272624,2.534974 -0.05015,0.05016 -0.913459,-0.760121 -2.486399,-2.333675 z"
     id="path1154"
     transform="scale(0.5)" />
  <path
     style="fill:#ba4928;stroke:none;stroke-width:0.0784314;fill-opacity:1"
     d="m 38.739191,30.1389 -1.496104,-1.511449 0.255659,-0.874041 c 0.403379,-1.379063 0.526664,-2.446186 0.481557,-4.168195 -0.05816,-2.220242 -0.435985,-3.813566 -1.352319,-5.702862 -1.416168,-2.919851 -3.688208,-5.15193 -6.751735,-6.632985 -1.584575,-0.766059 -1.901225,-1.177438 -1.817442,-2.3611462 0.06065,-0.8569269 0.463851,-1.3986003 1.249737,-1.6789483 0.450242,-0.1606145 0.855764,-0.094206 1.72383,0.2822948 6.315456,2.7391627 10.561442,8.7790177 10.877344,15.4728667 0.139432,2.954509 -0.357556,5.756616 -1.453316,8.194072 l -0.221108,0.491842 z"
     id="path1230"
     transform="scale(0.5)" />
</svg>
