<?xml version="1.0" encoding="UTF-8" standalone="no"?>
<svg
   height="48px"
   viewBox="0 0 24 24"
   width="48px"
   fill="#000000"
   version="1.1"
   id="svg1603"
   sodipodi:docname="volume_mute_black_48dp.svg"
   inkscape:version="1.1.1 (3bf5ae0d25, 2021-09-20, custom)"
   xmlns:inkscape="http://www.inkscape.org/namespaces/inkscape"
   xmlns:sodipodi="http://sodipodi.sourceforge.net/DTD/sodipodi-0.dtd"
   xmlns="http://www.w3.org/2000/svg"
   xmlns:svg="http://www.w3.org/2000/svg">
  <defs
     id="defs1607" />
  <sodipodi:namedview
     id="namedview1605"
     pagecolor="#505050"
     bordercolor="#ffffff"
     borderopacity="1"
     inkscape:pageshadow="0"
     inkscape:pageopacity="0"
     inkscape:pagecheckerboard="1"
     showgrid="false"
     inkscape:zoom="11.645833"
     inkscape:cx="24"
     inkscape:cy="23.871199"
     inkscape:window-width="1920"
     inkscape:window-height="1001"
     inkscape:window-x="0"
     inkscape:window-y="53"
     inkscape:window-maximized="1"
     inkscape:current-layer="svg1603" />
  <path
     d="M7 10v4c0 .55.45 1 1 1h3l3.29 3.29c.63.63 1.71.18 1.71-.71V6.41c0-.89-1.08-1.34-1.71-.71L11 9H8c-.55 0-1 .45-1 1z"
     id="path1601" />
  <path
     style="fill:#ba4928;stroke:none;stroke-width:0.0858676;fill-opacity:1"
     d="m 29.399791,37.019281 c -0.170723,-0.06101 -0.421885,-0.192051 -0.558139,-0.291204 -0.136254,-0.09915 -1.735203,-1.670438 -3.55322,-3.491744 l -3.305485,-3.311467 -3.220454,-0.0019 c -2.942802,-0.0017 -3.250479,-0.01552 -3.568716,-0.160072 -0.428774,-0.194754 -0.921615,-0.755348 -1.054767,-1.199769 -0.139996,-0.467267 -0.139996,-8.659011 0,-9.126278 0.133152,-0.444421 0.625993,-1.005015 1.054767,-1.19977 0.31822,-0.144539 0.625836,-0.158348 3.565973,-0.160071 l 3.21771,-0.0019 3.522898,-3.50607 c 3.768754,-3.750753 3.714604,-3.70681 4.567879,-3.70681 0.443621,0 1.176771,0.370339 1.454819,0.73488 0.480389,0.629822 0.462633,0.156726 0.462633,12.326419 0,7.707089 -0.02905,11.366251 -0.0926,11.662546 -0.132024,0.615601 -0.709237,1.24501 -1.303647,1.421531 -0.526037,0.156216 -0.778209,0.158686 -1.189655,0.01165 z"
     id="path1726"
     transform="scale(0.5)" />
</svg>
